<mxfile host="Electron" modified="2023-11-13T21:11:43.180Z" agent="Mozilla/5.0 (Windows NT 10.0; Win64; x64) AppleWebKit/537.36 (KHTML, like Gecko) draw.io/22.0.2 Chrome/114.0.5735.289 Electron/25.8.4 Safari/537.36" etag="tCrm5YLB4rsgWym4mKHD" version="22.0.2" type="device">
  <diagram name="Page-1" id="bkT9mM5tBs9ZweZzxzpN">
    <mxGraphModel dx="1102" dy="811" grid="1" gridSize="10" guides="1" tooltips="1" connect="1" arrows="1" fold="1" page="1" pageScale="1" pageWidth="1100" pageHeight="850" math="0" shadow="0">
      <root>
        <mxCell id="0" />
        <mxCell id="1" parent="0" />
        <mxCell id="-VPw5bBH9yVI4GM7s9aF-1" value="" style="edgeStyle=orthogonalEdgeStyle;rounded=0;orthogonalLoop=1;jettySize=auto;html=1;" edge="1" parent="1" source="-VPw5bBH9yVI4GM7s9aF-2" target="-VPw5bBH9yVI4GM7s9aF-4">
          <mxGeometry relative="1" as="geometry" />
        </mxCell>
        <mxCell id="-VPw5bBH9yVI4GM7s9aF-2" value="&lt;p style=&quot;line-height: 90%;&quot;&gt;&lt;font style=&quot;font-size: 10px;&quot;&gt;Start&lt;/font&gt;&lt;/p&gt;" style="ellipse;whiteSpace=wrap;html=1;aspect=fixed;" vertex="1" parent="1">
          <mxGeometry x="80" y="120" width="40" height="40" as="geometry" />
        </mxCell>
        <mxCell id="-VPw5bBH9yVI4GM7s9aF-3" value="" style="edgeStyle=orthogonalEdgeStyle;rounded=0;orthogonalLoop=1;jettySize=auto;html=1;" edge="1" parent="1" source="-VPw5bBH9yVI4GM7s9aF-4" target="-VPw5bBH9yVI4GM7s9aF-6">
          <mxGeometry relative="1" as="geometry" />
        </mxCell>
        <mxCell id="-VPw5bBH9yVI4GM7s9aF-4" value="&lt;font style=&quot;font-size: 10px;&quot;&gt;Select Nav Menu&lt;/font&gt;" style="rounded=1;whiteSpace=wrap;html=1;" vertex="1" parent="1">
          <mxGeometry x="200" y="120" width="120" height="40" as="geometry" />
        </mxCell>
        <mxCell id="-VPw5bBH9yVI4GM7s9aF-5" value="" style="edgeStyle=orthogonalEdgeStyle;rounded=0;orthogonalLoop=1;jettySize=auto;html=1;" edge="1" parent="1" source="-VPw5bBH9yVI4GM7s9aF-6" target="-VPw5bBH9yVI4GM7s9aF-7">
          <mxGeometry relative="1" as="geometry" />
        </mxCell>
        <mxCell id="-VPw5bBH9yVI4GM7s9aF-6" value="&lt;font style=&quot;font-size: 10px;&quot;&gt;Click Events&amp;nbsp;Link&lt;/font&gt;" style="rounded=1;whiteSpace=wrap;html=1;" vertex="1" parent="1">
          <mxGeometry x="200" y="240" width="120" height="40" as="geometry" />
        </mxCell>
        <mxCell id="-VPw5bBH9yVI4GM7s9aF-9" value="" style="edgeStyle=orthogonalEdgeStyle;rounded=0;orthogonalLoop=1;jettySize=auto;html=1;" edge="1" parent="1" source="-VPw5bBH9yVI4GM7s9aF-7" target="-VPw5bBH9yVI4GM7s9aF-8">
          <mxGeometry relative="1" as="geometry" />
        </mxCell>
        <mxCell id="-VPw5bBH9yVI4GM7s9aF-7" value="&lt;font style=&quot;font-size: 10px;&quot;&gt;Click Individual&lt;br&gt;Event Link&lt;/font&gt;" style="rounded=1;whiteSpace=wrap;html=1;" vertex="1" parent="1">
          <mxGeometry x="200" y="360" width="120" height="40" as="geometry" />
        </mxCell>
        <mxCell id="-VPw5bBH9yVI4GM7s9aF-11" value="" style="edgeStyle=orthogonalEdgeStyle;rounded=0;orthogonalLoop=1;jettySize=auto;html=1;" edge="1" parent="1" source="-VPw5bBH9yVI4GM7s9aF-8" target="-VPw5bBH9yVI4GM7s9aF-10">
          <mxGeometry relative="1" as="geometry" />
        </mxCell>
        <mxCell id="-VPw5bBH9yVI4GM7s9aF-12" value="No" style="edgeLabel;html=1;align=center;verticalAlign=middle;resizable=0;points=[];" vertex="1" connectable="0" parent="-VPw5bBH9yVI4GM7s9aF-11">
          <mxGeometry x="-0.1667" y="1" relative="1" as="geometry">
            <mxPoint as="offset" />
          </mxGeometry>
        </mxCell>
        <mxCell id="-VPw5bBH9yVI4GM7s9aF-15" value="" style="edgeStyle=orthogonalEdgeStyle;rounded=0;orthogonalLoop=1;jettySize=auto;html=1;" edge="1" parent="1" source="-VPw5bBH9yVI4GM7s9aF-8" target="-VPw5bBH9yVI4GM7s9aF-14">
          <mxGeometry relative="1" as="geometry" />
        </mxCell>
        <mxCell id="-VPw5bBH9yVI4GM7s9aF-16" value="&amp;nbsp;Yes&amp;nbsp;" style="edgeLabel;html=1;align=center;verticalAlign=middle;resizable=0;points=[];" vertex="1" connectable="0" parent="-VPw5bBH9yVI4GM7s9aF-15">
          <mxGeometry x="-0.3089" relative="1" as="geometry">
            <mxPoint x="5" as="offset" />
          </mxGeometry>
        </mxCell>
        <mxCell id="-VPw5bBH9yVI4GM7s9aF-8" value="&lt;p style=&quot;line-height: 0%;&quot;&gt;&lt;span style=&quot;font-size: 10px;&quot;&gt;Has&lt;/span&gt;&lt;/p&gt;&lt;p style=&quot;line-height: 0%;&quot;&gt;&lt;span style=&quot;font-size: 10px;&quot;&gt;Location?&lt;/span&gt;&lt;/p&gt;" style="rhombus;whiteSpace=wrap;html=1;" vertex="1" parent="1">
          <mxGeometry x="220" y="480" width="80" height="80" as="geometry" />
        </mxCell>
        <mxCell id="-VPw5bBH9yVI4GM7s9aF-19" value="" style="edgeStyle=orthogonalEdgeStyle;rounded=0;orthogonalLoop=1;jettySize=auto;html=1;" edge="1" parent="1" source="-VPw5bBH9yVI4GM7s9aF-10" target="-VPw5bBH9yVI4GM7s9aF-17">
          <mxGeometry relative="1" as="geometry" />
        </mxCell>
        <mxCell id="-VPw5bBH9yVI4GM7s9aF-10" value="&lt;font style=&quot;font-size: 10px;&quot;&gt;Click Add&lt;br&gt;Location Button&lt;/font&gt;" style="rounded=1;whiteSpace=wrap;html=1;" vertex="1" parent="1">
          <mxGeometry x="200" y="640" width="120" height="40" as="geometry" />
        </mxCell>
        <mxCell id="-VPw5bBH9yVI4GM7s9aF-18" value="" style="edgeStyle=orthogonalEdgeStyle;rounded=0;orthogonalLoop=1;jettySize=auto;html=1;" edge="1" parent="1" source="-VPw5bBH9yVI4GM7s9aF-14" target="-VPw5bBH9yVI4GM7s9aF-17">
          <mxGeometry relative="1" as="geometry" />
        </mxCell>
        <mxCell id="-VPw5bBH9yVI4GM7s9aF-14" value="&lt;font style=&quot;font-size: 10px;&quot;&gt;Click Change&lt;br&gt;Location Button&lt;/font&gt;" style="rounded=1;whiteSpace=wrap;html=1;" vertex="1" parent="1">
          <mxGeometry x="400" y="500" width="120" height="40" as="geometry" />
        </mxCell>
        <mxCell id="-VPw5bBH9yVI4GM7s9aF-21" value="" style="edgeStyle=orthogonalEdgeStyle;rounded=0;orthogonalLoop=1;jettySize=auto;html=1;" edge="1" parent="1" source="-VPw5bBH9yVI4GM7s9aF-17" target="-VPw5bBH9yVI4GM7s9aF-20">
          <mxGeometry relative="1" as="geometry" />
        </mxCell>
        <mxCell id="-VPw5bBH9yVI4GM7s9aF-17" value="&lt;font style=&quot;font-size: 10px;&quot;&gt;Click Find&lt;br&gt;Locations Button&lt;/font&gt;" style="rounded=1;whiteSpace=wrap;html=1;" vertex="1" parent="1">
          <mxGeometry x="400" y="640" width="120" height="40" as="geometry" />
        </mxCell>
        <mxCell id="-VPw5bBH9yVI4GM7s9aF-23" style="edgeStyle=orthogonalEdgeStyle;rounded=0;orthogonalLoop=1;jettySize=auto;html=1;exitX=1;exitY=0.5;exitDx=0;exitDy=0;" edge="1" parent="1" source="-VPw5bBH9yVI4GM7s9aF-20" target="-VPw5bBH9yVI4GM7s9aF-22">
          <mxGeometry relative="1" as="geometry" />
        </mxCell>
        <mxCell id="-VPw5bBH9yVI4GM7s9aF-20" value="&lt;font style=&quot;font-size: 10px;&quot;&gt;Click Add Button&lt;br&gt;next to Location&lt;/font&gt;" style="rounded=1;whiteSpace=wrap;html=1;" vertex="1" parent="1">
          <mxGeometry x="600" y="640" width="120" height="40" as="geometry" />
        </mxCell>
        <mxCell id="-VPw5bBH9yVI4GM7s9aF-22" value="&lt;font style=&quot;font-size: 10px;&quot;&gt;Finish&lt;/font&gt;" style="ellipse;whiteSpace=wrap;html=1;aspect=fixed;fontSize=7;" vertex="1" parent="1">
          <mxGeometry x="840" y="640" width="40" height="40" as="geometry" />
        </mxCell>
      </root>
    </mxGraphModel>
  </diagram>
</mxfile>
